<svg width="1469" height="396" viewBox="0 0 1469 396" fill="none" xmlns="http://www.w3.org/2000/svg">
<path d="M339.777 211H204V189.427L299.667 47.6416H206.596V21H337.181V42.8331L241.125 184.358H339.777V211Z" fill="#F47721"/>
<path d="M480.747 211H373.397V21H480.747V47.2517H404.421V98.9754H475.944V124.967H404.421V184.618H480.747V211Z" fill="#F47721"/>
<path d="M680 211H641.967L548.636 59.5978H547.597L548.247 68.0451C549.458 84.1601 550.064 98.8887 550.064 112.231V211H521.896V21H559.54L652.611 171.622H653.39C653.217 169.63 652.87 162.395 652.351 149.919C651.832 137.357 651.572 127.566 651.572 120.549V21H680V211Z" fill="#F47721"/>
<path d="M883.697 211H852.655V125.277H765.114V211H733.942V21.1113H765.114V98.7812H852.655V21.1113H883.697V211ZM1078.78 211H1042.93L983.837 124.758L965.134 139.954V211H933.962V21.1113H965.134V111.899C968.944 107.224 972.797 102.548 976.693 97.8721C980.59 93.1963 984.486 88.5205 988.383 83.8447L1041.89 21.1113H1077.09L1006.18 104.236L1078.78 211ZM1258.02 114.237C1258.02 135.625 1254.04 153.505 1246.07 167.879C1238.1 182.166 1226.54 192.946 1211.39 200.22C1196.24 207.407 1177.97 211 1156.58 211H1103.85V21.1113H1162.3C1181.95 21.1113 1198.92 24.6615 1213.21 31.7617C1227.5 38.7754 1238.54 49.2093 1246.33 63.0635C1254.12 76.8311 1258.02 93.889 1258.02 114.237ZM1225.55 115.146C1225.55 99.5605 1223.08 86.7454 1218.15 76.7012C1213.3 66.6569 1206.11 59.2103 1196.58 54.3613C1187.15 49.4258 1175.5 46.958 1161.65 46.958H1135.02V184.894H1157.1C1180.05 184.894 1197.19 179.049 1208.53 167.359C1219.88 155.67 1225.55 138.266 1225.55 115.146Z" fill="#217346"/>
<rect y="272" width="1469" height="124" fill="#217346"/>
<path d="M64.8916 306.321C72.722 306.321 78.4357 307.926 82.0327 311.136C85.6297 314.345 87.4282 318.842 87.4282 324.625C87.4282 327.253 87.0132 329.757 86.1831 332.137C85.3807 334.489 84.0526 336.578 82.1987 338.404C80.3449 340.202 77.8962 341.627 74.8525 342.679C71.8366 343.73 68.1151 344.256 63.688 344.256H57.2134V367H47.2524V306.321H64.8916ZM64.2275 314.581H57.2134V335.955H62.6504C65.777 335.955 68.4333 335.595 70.6191 334.876C72.805 334.129 74.4652 332.953 75.5996 331.348C76.734 329.743 77.3013 327.627 77.3013 324.998C77.3013 321.484 76.236 318.869 74.1055 317.154C72.0026 315.438 68.71 314.581 64.2275 314.581ZM108.305 302.42V318.648C108.305 320.336 108.249 321.982 108.139 323.587C108.056 325.192 107.959 326.437 107.848 327.322H108.388C109.356 325.717 110.546 324.403 111.957 323.379C113.368 322.328 114.945 321.539 116.688 321.014C118.459 320.488 120.341 320.225 122.333 320.225C125.847 320.225 128.835 320.82 131.298 322.01C133.76 323.172 135.642 324.984 136.942 327.447C138.271 329.909 138.935 333.105 138.935 337.034V367H129.181V338.86C129.181 335.291 128.448 332.621 126.981 330.85C125.515 329.052 123.246 328.152 120.175 328.152C117.214 328.152 114.862 328.775 113.119 330.02C111.404 331.237 110.172 333.05 109.425 335.457C108.678 337.837 108.305 340.742 108.305 344.173V367H98.5513V302.42H108.305ZM170.602 320.184C176.413 320.184 180.798 321.47 183.759 324.043C186.747 326.617 188.241 330.629 188.241 336.08V367H181.31L179.442 360.484H179.11C177.81 362.144 176.468 363.514 175.084 364.593C173.701 365.672 172.096 366.474 170.27 367C168.472 367.553 166.272 367.83 163.671 367.83C160.932 367.83 158.483 367.332 156.325 366.336C154.167 365.312 152.465 363.763 151.22 361.688C149.975 359.612 149.352 356.984 149.352 353.802C149.352 349.07 151.109 345.515 154.623 343.135C158.165 340.756 163.505 339.441 170.644 339.192L178.612 338.902V336.495C178.612 333.313 177.865 331.044 176.371 329.688C174.905 328.332 172.829 327.654 170.146 327.654C167.849 327.654 165.622 327.986 163.463 328.65C161.305 329.314 159.202 330.131 157.155 331.099L154 324.209C156.242 323.02 158.787 322.051 161.637 321.304C164.515 320.557 167.503 320.184 170.602 320.184ZM178.571 345.044L172.636 345.252C167.766 345.418 164.349 346.248 162.384 347.742C160.42 349.236 159.438 351.284 159.438 353.885C159.438 356.154 160.115 357.814 161.471 358.865C162.827 359.889 164.612 360.401 166.825 360.401C170.201 360.401 172.995 359.446 175.209 357.537C177.45 355.6 178.571 352.764 178.571 349.029V345.044ZM156.159 315.494V314.456C157.099 313.405 158.096 312.256 159.147 311.011C160.226 309.738 161.278 308.438 162.301 307.11C163.353 305.782 164.307 304.495 165.165 303.25H175.333C176.219 304.495 177.174 305.782 178.197 307.11C179.221 308.438 180.259 309.738 181.31 311.011C182.389 312.256 183.399 313.405 184.34 314.456V315.494H178.986C177.575 314.525 176.136 313.46 174.669 312.298C173.203 311.108 171.723 309.849 170.229 308.521C168.79 309.849 167.323 311.108 165.829 312.298C164.335 313.46 162.882 314.525 161.471 315.494H156.159ZM154.582 307.4C153.004 306.211 151.427 304.896 149.85 303.458C148.273 301.991 146.862 300.455 145.617 298.851V297.979H154.083C154.969 299.778 155.827 301.313 156.657 302.586C157.514 303.831 158.497 305.104 159.604 306.404V307.4H154.582ZM225.844 320.184C231.018 320.184 235.044 321.526 237.921 324.209C240.827 326.866 242.279 331.141 242.279 337.034V367H232.526V338.86C232.526 335.291 231.793 332.621 230.326 330.85C228.86 329.052 226.591 328.152 223.52 328.152C219.065 328.152 215.966 329.522 214.223 332.261C212.507 335 211.649 338.971 211.649 344.173V367H201.896V321.055H209.491L210.861 327.281H211.4C212.396 325.676 213.628 324.362 215.094 323.338C216.588 322.286 218.249 321.498 220.075 320.972C221.929 320.446 223.852 320.184 225.844 320.184ZM329.936 320.184C335.082 320.184 338.956 321.512 341.557 324.168C344.185 326.824 345.5 331.085 345.5 336.951V367H335.746V338.694C335.746 335.208 335.068 332.579 333.712 330.809C332.357 329.038 330.295 328.152 327.528 328.152C323.655 328.152 320.86 329.397 319.145 331.888C317.457 334.35 316.613 337.933 316.613 342.637V367H306.859V338.694C306.859 336.37 306.555 334.433 305.946 332.884C305.365 331.307 304.466 330.131 303.249 329.356C302.031 328.554 300.495 328.152 298.642 328.152C295.958 328.152 293.813 328.761 292.208 329.979C290.631 331.196 289.497 332.994 288.805 335.374C288.113 337.726 287.768 340.617 287.768 344.048V367H278.014V321.055H285.609L286.979 327.239H287.519C288.459 325.634 289.621 324.32 291.005 323.296C292.416 322.245 293.979 321.47 295.695 320.972C297.41 320.446 299.195 320.184 301.049 320.184C304.48 320.184 307.371 320.792 309.723 322.01C312.075 323.2 313.832 325.026 314.994 327.488H315.741C317.18 324.998 319.186 323.158 321.759 321.968C324.333 320.778 327.058 320.184 329.936 320.184ZM377.416 320.184C381.511 320.184 385.025 321.028 387.958 322.715C390.891 324.403 393.146 326.797 394.723 329.896C396.3 332.994 397.089 336.702 397.089 341.019V346.248H366.417C366.528 350.703 367.718 354.134 369.987 356.541C372.283 358.948 375.493 360.152 379.616 360.152C382.549 360.152 385.177 359.875 387.501 359.322C389.853 358.741 392.274 357.897 394.765 356.79V364.717C392.468 365.796 390.13 366.585 387.75 367.083C385.371 367.581 382.521 367.83 379.201 367.83C374.691 367.83 370.72 366.958 367.289 365.215C363.886 363.444 361.216 360.816 359.279 357.33C357.37 353.843 356.415 349.513 356.415 344.339C356.415 339.192 357.287 334.821 359.03 331.224C360.773 327.627 363.222 324.887 366.376 323.006C369.53 321.124 373.21 320.184 377.416 320.184ZM377.416 327.53C374.345 327.53 371.854 328.526 369.945 330.518C368.064 332.51 366.957 335.429 366.625 339.275H387.543C387.515 336.979 387.128 334.945 386.381 333.174C385.661 331.403 384.555 330.02 383.061 329.024C381.594 328.028 379.713 327.53 377.416 327.53ZM363.512 315.494V314.456C364.453 313.405 365.449 312.256 366.5 311.011C367.58 309.738 368.631 308.438 369.655 307.11C370.706 305.782 371.661 304.495 372.519 303.25H382.687C383.572 304.495 384.527 305.782 385.551 307.11C386.575 308.438 387.612 309.738 388.664 311.011C389.743 312.256 390.753 313.405 391.693 314.456V315.494H386.339C384.928 314.525 383.489 313.46 382.023 312.298C380.556 311.108 379.076 309.849 377.582 308.521C376.143 309.849 374.677 311.108 373.183 312.298C371.688 313.46 370.236 314.525 368.825 315.494H363.512ZM361.935 307.4C360.358 306.211 358.781 304.896 357.204 303.458C355.626 301.991 354.215 300.455 352.97 298.851V297.979H361.437C362.322 299.778 363.18 301.313 364.01 302.586C364.868 303.831 365.85 305.104 366.957 306.404V307.4H361.935ZM460.009 320.184C465.155 320.184 469.029 321.512 471.63 324.168C474.258 326.824 475.573 331.085 475.573 336.951V367H465.819V338.694C465.819 335.208 465.141 332.579 463.786 330.809C462.43 329.038 460.368 328.152 457.602 328.152C453.728 328.152 450.933 329.397 449.218 331.888C447.53 334.35 446.686 337.933 446.686 342.637V367H436.933V338.694C436.933 336.37 436.628 334.433 436.02 332.884C435.438 331.307 434.539 330.131 433.322 329.356C432.104 328.554 430.569 328.152 428.715 328.152C426.031 328.152 423.887 328.761 422.282 329.979C420.705 331.196 419.57 332.994 418.878 335.374C418.187 337.726 417.841 340.617 417.841 344.048V367H408.087V321.055H415.683L417.052 327.239H417.592C418.533 325.634 419.695 324.32 421.078 323.296C422.489 322.245 424.053 321.47 425.768 320.972C427.484 320.446 429.268 320.184 431.122 320.184C434.553 320.184 437.444 320.792 439.796 322.01C442.148 323.2 443.905 325.026 445.067 327.488H445.814C447.253 324.998 449.259 323.158 451.833 321.968C454.406 320.778 457.131 320.184 460.009 320.184ZM521.02 302.42V333.631C521.02 335.042 520.964 336.591 520.854 338.279C520.743 339.939 520.632 341.503 520.521 342.969H520.729C521.448 342.001 522.306 340.866 523.302 339.566C524.326 338.265 525.294 337.131 526.208 336.163L540.236 321.055H551.442L533.056 340.811L552.646 367H541.19L526.498 346.829L521.02 351.519V367H511.266V302.42H521.02ZM578.295 320.184C582.39 320.184 585.904 321.028 588.837 322.715C591.77 324.403 594.025 326.797 595.602 329.896C597.179 332.994 597.968 336.702 597.968 341.019V346.248H567.296C567.407 350.703 568.597 354.134 570.866 356.541C573.162 358.948 576.372 360.152 580.495 360.152C583.428 360.152 586.056 359.875 588.38 359.322C590.732 358.741 593.153 357.897 595.644 356.79V364.717C593.347 365.796 591.009 366.585 588.629 367.083C586.25 367.581 583.4 367.83 580.08 367.83C575.569 367.83 571.599 366.958 568.168 365.215C564.765 363.444 562.095 360.816 560.158 357.33C558.249 353.843 557.294 349.513 557.294 344.339C557.294 339.192 558.166 334.821 559.909 331.224C561.652 327.627 564.101 324.887 567.255 323.006C570.409 321.124 574.089 320.184 578.295 320.184ZM578.295 327.53C575.224 327.53 572.733 328.526 570.824 330.518C568.943 332.51 567.836 335.429 567.504 339.275H588.422C588.394 336.979 588.007 334.945 587.26 333.174C586.54 331.403 585.434 330.02 583.939 329.024C582.473 328.028 580.591 327.53 578.295 327.53ZM592.199 315.494H586.886C585.475 314.525 584.022 313.46 582.528 312.298C581.034 311.108 579.568 309.849 578.129 308.521C576.662 309.849 575.182 311.108 573.688 312.298C572.222 313.46 570.783 314.525 569.372 315.494H564.059V314.415C565 313.363 565.996 312.215 567.047 310.97C568.126 309.697 569.178 308.396 570.202 307.068C571.253 305.74 572.208 304.454 573.065 303.208H583.192C584.05 304.454 584.991 305.74 586.015 307.068C587.066 308.396 588.118 309.697 589.169 310.97C590.248 312.215 591.258 313.363 592.199 314.415V315.494ZM588.712 306.363C589.847 305.062 590.829 303.79 591.659 302.544C592.517 301.299 593.389 299.778 594.274 297.979H602.741V298.851C601.551 300.455 600.154 301.991 598.549 303.458C596.972 304.896 595.408 306.211 593.859 307.4H588.712V306.363ZM648.146 359.944C649.419 359.944 650.678 359.834 651.923 359.612C653.168 359.363 654.302 359.073 655.326 358.741V366.128C654.247 366.599 652.85 367 651.134 367.332C649.419 367.664 647.634 367.83 645.78 367.83C643.179 367.83 640.841 367.401 638.766 366.543C636.691 365.658 635.045 364.15 633.827 362.02C632.61 359.889 632.001 356.942 632.001 353.179V328.484H625.734V324.126L632.458 320.682L635.653 310.845H641.796V321.055H654.953V328.484H641.796V353.055C641.796 355.379 642.377 357.108 643.539 358.243C644.701 359.377 646.237 359.944 648.146 359.944ZM705.338 343.924C705.338 347.742 704.84 351.132 703.844 354.092C702.848 357.053 701.396 359.557 699.486 361.604C697.577 363.624 695.281 365.174 692.597 366.253C689.913 367.304 686.883 367.83 683.507 367.83C680.353 367.83 677.462 367.304 674.833 366.253C672.204 365.174 669.922 363.624 667.985 361.604C666.076 359.557 664.595 357.053 663.544 354.092C662.493 351.132 661.967 347.742 661.967 343.924C661.967 338.86 662.838 334.572 664.582 331.058C666.352 327.516 668.87 324.818 672.135 322.964C675.4 321.111 679.288 320.184 683.798 320.184C688.031 320.184 691.767 321.111 695.004 322.964C698.241 324.818 700.773 327.516 702.599 331.058C704.425 334.599 705.338 338.888 705.338 343.924ZM672.011 343.924C672.011 347.272 672.412 350.136 673.214 352.515C674.044 354.895 675.317 356.721 677.033 357.994C678.748 359.239 680.962 359.861 683.673 359.861C686.385 359.861 688.598 359.239 690.314 357.994C692.029 356.721 693.288 354.895 694.091 352.515C694.893 350.136 695.294 347.272 695.294 343.924C695.294 340.576 694.893 337.74 694.091 335.416C693.288 333.064 692.029 331.279 690.314 330.062C688.598 328.816 686.371 328.194 683.632 328.194C679.592 328.194 676.645 329.55 674.792 332.261C672.938 334.973 672.011 338.86 672.011 343.924ZM734.557 320.184C740.368 320.184 744.753 321.47 747.714 324.043C750.702 326.617 752.196 330.629 752.196 336.08V367H745.265L743.397 360.484H743.065C741.765 362.144 740.423 363.514 739.04 364.593C737.656 365.672 736.051 366.474 734.225 367C732.427 367.553 730.227 367.83 727.626 367.83C724.887 367.83 722.438 367.332 720.28 366.336C718.122 365.312 716.42 363.763 715.175 361.688C713.93 359.612 713.307 356.984 713.307 353.802C713.307 349.07 715.064 345.515 718.578 343.135C722.12 340.756 727.46 339.441 734.599 339.192L742.567 338.902V336.495C742.567 333.313 741.82 331.044 740.326 329.688C738.86 328.332 736.785 327.654 734.101 327.654C731.804 327.654 729.577 327.986 727.418 328.65C725.26 329.314 723.157 330.131 721.11 331.099L717.956 324.209C720.197 323.02 722.742 322.051 725.592 321.304C728.47 320.557 731.458 320.184 734.557 320.184ZM742.526 345.044L736.591 345.252C731.721 345.418 728.304 346.248 726.339 347.742C724.375 349.236 723.393 351.284 723.393 353.885C723.393 356.154 724.07 357.814 725.426 358.865C726.782 359.889 728.567 360.401 730.78 360.401C734.156 360.401 736.951 359.446 739.164 357.537C741.405 355.6 742.526 352.764 742.526 349.029V345.044ZM748.378 301.88V302.71C747.714 303.513 746.815 304.481 745.68 305.616C744.546 306.722 743.314 307.898 741.986 309.144C740.658 310.361 739.344 311.537 738.043 312.671C736.743 313.778 735.567 314.719 734.516 315.494H728V314.415C728.913 313.363 729.923 312.104 731.029 310.638C732.164 309.171 733.271 307.663 734.35 306.114C735.456 304.564 736.383 303.153 737.13 301.88H748.378ZM789.799 320.184C794.973 320.184 798.999 321.526 801.876 324.209C804.782 326.866 806.234 331.141 806.234 337.034V367H796.481V338.86C796.481 335.291 795.748 332.621 794.281 330.85C792.815 329.052 790.546 328.152 787.475 328.152C783.02 328.152 779.921 329.522 778.178 332.261C776.462 335 775.604 338.971 775.604 344.173V367H765.851V321.055H773.446L774.816 327.281H775.355C776.352 325.676 777.583 324.362 779.049 323.338C780.543 322.286 782.204 321.498 784.03 320.972C785.884 320.446 787.807 320.184 789.799 320.184ZM890.819 367H880.9V339.607H852.926V367H842.965V306.321H852.926V331.141H880.9V306.321H890.819V367ZM946.559 343.924C946.559 347.742 946.061 351.132 945.065 354.092C944.069 357.053 942.616 359.557 940.707 361.604C938.798 363.624 936.501 365.174 933.817 366.253C931.133 367.304 928.104 367.83 924.728 367.83C921.574 367.83 918.682 367.304 916.054 366.253C913.425 365.174 911.142 363.624 909.206 361.604C907.296 359.557 905.816 357.053 904.765 354.092C903.713 351.132 903.188 347.742 903.188 343.924C903.188 338.86 904.059 334.572 905.802 331.058C907.573 327.516 910.091 324.818 913.356 322.964C916.621 321.111 920.508 320.184 925.019 320.184C929.252 320.184 932.987 321.111 936.225 322.964C939.462 324.818 941.994 327.516 943.82 331.058C945.646 334.599 946.559 338.888 946.559 343.924ZM913.231 343.924C913.231 347.272 913.633 350.136 914.435 352.515C915.265 354.895 916.538 356.721 918.253 357.994C919.969 359.239 922.182 359.861 924.894 359.861C927.606 359.861 929.819 359.239 931.535 357.994C933.25 356.721 934.509 354.895 935.312 352.515C936.114 350.136 936.515 347.272 936.515 343.924C936.515 340.576 936.114 337.74 935.312 335.416C934.509 333.064 933.25 331.279 931.535 330.062C929.819 328.816 927.592 328.194 924.853 328.194C920.813 328.194 917.866 329.55 916.012 332.261C914.158 334.973 913.231 338.86 913.231 343.924ZM924.77 383.187C923.22 383.187 921.906 382.771 920.827 381.941C919.775 381.139 919.25 379.769 919.25 377.833C919.25 375.868 919.775 374.485 920.827 373.682C921.906 372.88 923.22 372.479 924.77 372.479C926.291 372.479 927.592 372.88 928.671 373.682C929.75 374.485 930.29 375.868 930.29 377.833C930.29 379.769 929.75 381.139 928.671 381.941C927.592 382.771 926.291 383.187 924.77 383.187ZM930.456 301.88C931.203 303.153 932.199 304.564 933.444 306.114C934.717 307.663 936.031 309.185 937.387 310.679C938.77 312.146 939.988 313.405 941.039 314.456V315.494H934.398C932.904 314.553 931.313 313.432 929.625 312.132C927.965 310.804 926.402 309.379 924.936 307.857C923.441 309.379 921.878 310.79 920.246 312.09C918.641 313.391 917.105 314.525 915.639 315.494H909.04V314.456C910.091 313.377 911.295 312.104 912.65 310.638C914.006 309.171 915.307 307.663 916.552 306.114C917.797 304.564 918.793 303.153 919.54 301.88H930.456ZM989.599 302.42V333.631C989.599 335.042 989.543 336.591 989.433 338.279C989.322 339.939 989.211 341.503 989.101 342.969H989.308C990.028 342.001 990.885 340.866 991.881 339.566C992.905 338.265 993.874 337.131 994.787 336.163L1008.81 321.055H1020.02L1001.63 340.811L1021.22 367H1009.77L995.077 346.829L989.599 351.519V367H979.845V302.42H989.599ZM1038.32 321.055V367H1028.57V321.055H1038.32ZM1033.51 303.458C1035 303.458 1036.29 303.859 1037.37 304.661C1038.48 305.464 1039.03 306.847 1039.03 308.812C1039.03 310.748 1038.48 312.132 1037.37 312.962C1036.29 313.764 1035 314.166 1033.51 314.166C1031.96 314.166 1030.65 313.764 1029.57 312.962C1028.52 312.132 1027.99 310.748 1027.99 308.812C1027.99 306.847 1028.52 305.464 1029.57 304.661C1030.65 303.859 1031.96 303.458 1033.51 303.458ZM1076.26 320.184C1081.43 320.184 1085.46 321.526 1088.34 324.209C1091.24 326.866 1092.69 331.141 1092.69 337.034V367H1082.94V338.86C1082.94 335.291 1082.21 332.621 1080.74 330.85C1079.27 329.052 1077.01 328.152 1073.93 328.152C1069.48 328.152 1066.38 329.522 1064.64 332.261C1062.92 335 1062.06 338.971 1062.06 344.173V367H1052.31V321.055H1059.91L1061.28 327.281H1061.82C1062.81 325.676 1064.04 324.362 1065.51 323.338C1067 322.286 1068.66 321.498 1070.49 320.972C1072.34 320.446 1074.27 320.184 1076.26 320.184ZM1116.1 302.42V318.648C1116.1 320.336 1116.05 321.982 1115.94 323.587C1115.85 325.192 1115.76 326.437 1115.65 327.322H1116.19C1117.15 325.717 1118.34 324.403 1119.75 323.379C1121.17 322.328 1122.74 321.539 1124.49 321.014C1126.26 320.488 1128.14 320.225 1130.13 320.225C1133.64 320.225 1136.63 320.82 1139.1 322.01C1141.56 323.172 1143.44 324.984 1144.74 327.447C1146.07 329.909 1146.73 333.105 1146.73 337.034V367H1136.98V338.86C1136.98 335.291 1136.25 332.621 1134.78 330.85C1133.31 329.052 1131.04 328.152 1127.97 328.152C1125.01 328.152 1122.66 328.775 1120.92 330.02C1119.2 331.237 1117.97 333.05 1117.22 335.457C1116.48 337.837 1116.1 340.742 1116.1 344.173V367H1106.35V302.42H1116.1ZM1197.91 367.83C1192.43 367.83 1188.03 365.838 1184.71 361.854C1181.42 357.841 1179.77 351.934 1179.77 344.131C1179.77 336.246 1181.44 330.283 1184.79 326.243C1188.17 322.203 1192.61 320.184 1198.11 320.184C1200.44 320.184 1202.47 320.502 1204.22 321.138C1205.96 321.747 1207.45 322.577 1208.7 323.628C1209.97 324.68 1211.05 325.856 1211.94 327.156H1212.39C1212.25 326.299 1212.09 325.067 1211.89 323.462C1211.73 321.83 1211.64 320.322 1211.64 318.938V302.42H1221.44V367H1213.8L1212.06 360.733H1211.64C1210.81 362.061 1209.76 363.265 1208.49 364.344C1207.25 365.395 1205.75 366.239 1204.01 366.875C1202.29 367.512 1200.26 367.83 1197.91 367.83ZM1200.65 359.903C1204.82 359.903 1207.77 358.699 1209.49 356.292C1211.2 353.885 1212.09 350.274 1212.14 345.459V344.173C1212.14 339.026 1211.31 335.083 1209.65 332.344C1207.99 329.577 1204.96 328.194 1200.56 328.194C1197.05 328.194 1194.37 329.619 1192.51 332.469C1190.69 335.291 1189.77 339.234 1189.77 344.297C1189.77 349.361 1190.69 353.235 1192.51 355.918C1194.37 358.575 1197.08 359.903 1200.65 359.903ZM1276.1 343.924C1276.1 347.742 1275.6 351.132 1274.61 354.092C1273.61 357.053 1272.16 359.557 1270.25 361.604C1268.34 363.624 1266.04 365.174 1263.36 366.253C1260.67 367.304 1257.64 367.83 1254.27 367.83C1251.11 367.83 1248.22 367.304 1245.59 366.253C1242.97 365.174 1240.68 363.624 1238.75 361.604C1236.84 359.557 1235.36 357.053 1234.31 354.092C1233.25 351.132 1232.73 347.742 1232.73 343.924C1232.73 338.86 1233.6 334.572 1235.34 331.058C1237.11 327.516 1239.63 324.818 1242.9 322.964C1246.16 321.111 1250.05 320.184 1254.56 320.184C1258.79 320.184 1262.53 321.111 1265.77 322.964C1269 324.818 1271.53 327.516 1273.36 331.058C1275.19 334.599 1276.1 338.888 1276.1 343.924ZM1242.77 343.924C1242.77 347.272 1243.17 350.136 1243.98 352.515C1244.81 354.895 1246.08 356.721 1247.79 357.994C1249.51 359.239 1251.72 359.861 1254.44 359.861C1257.15 359.861 1259.36 359.239 1261.08 357.994C1262.79 356.721 1264.05 354.895 1264.85 352.515C1265.65 350.136 1266.06 347.272 1266.06 343.924C1266.06 340.576 1265.65 337.74 1264.85 335.416C1264.05 333.064 1262.79 331.279 1261.08 330.062C1259.36 328.816 1257.13 328.194 1254.39 328.194C1250.35 328.194 1247.41 329.55 1245.55 332.261C1243.7 334.973 1242.77 338.86 1242.77 343.924ZM1305.32 320.184C1311.13 320.184 1315.51 321.47 1318.48 324.043C1321.46 326.617 1322.96 330.629 1322.96 336.08V367H1316.03L1314.16 360.484H1313.83C1312.53 362.144 1311.18 363.514 1309.8 364.593C1308.42 365.672 1306.81 366.474 1304.99 367C1303.19 367.553 1300.99 367.83 1298.39 367.83C1295.65 367.83 1293.2 367.332 1291.04 366.336C1288.88 365.312 1287.18 363.763 1285.94 361.688C1284.69 359.612 1284.07 356.984 1284.07 353.802C1284.07 349.07 1285.83 345.515 1289.34 343.135C1292.88 340.756 1298.22 339.441 1305.36 339.192L1313.33 338.902V336.495C1313.33 333.313 1312.58 331.044 1311.09 329.688C1309.62 328.332 1307.55 327.654 1304.86 327.654C1302.57 327.654 1300.34 327.986 1298.18 328.65C1296.02 329.314 1293.92 330.131 1291.87 331.099L1288.72 324.209C1290.96 323.02 1293.5 322.051 1296.35 321.304C1299.23 320.557 1302.22 320.184 1305.32 320.184ZM1313.29 345.044L1307.35 345.252C1302.48 345.418 1299.07 346.248 1297.1 347.742C1295.14 349.236 1294.15 351.284 1294.15 353.885C1294.15 356.154 1294.83 357.814 1296.19 358.865C1297.54 359.889 1299.33 360.401 1301.54 360.401C1304.92 360.401 1307.71 359.446 1309.93 357.537C1312.17 355.6 1313.29 352.764 1313.29 349.029V345.044ZM1360.56 320.184C1365.73 320.184 1369.76 321.526 1372.64 324.209C1375.54 326.866 1377 331.141 1377 337.034V367H1367.24V338.86C1367.24 335.291 1366.51 332.621 1365.04 330.85C1363.58 329.052 1361.31 328.152 1358.24 328.152C1353.78 328.152 1350.68 329.522 1348.94 332.261C1347.22 335 1346.37 338.971 1346.37 344.173V367H1336.61V321.055H1344.21L1345.58 327.281H1346.12C1347.11 325.676 1348.34 324.362 1349.81 323.338C1351.31 322.286 1352.97 321.498 1354.79 320.972C1356.65 320.446 1358.57 320.184 1360.56 320.184ZM1400.4 302.42V318.648C1400.4 320.336 1400.35 321.982 1400.24 323.587C1400.16 325.192 1400.06 326.437 1399.95 327.322H1400.49C1401.46 325.717 1402.65 324.403 1404.06 323.379C1405.47 322.328 1407.04 321.539 1408.79 321.014C1410.56 320.488 1412.44 320.225 1414.43 320.225C1417.95 320.225 1420.93 320.82 1423.4 322.01C1425.86 323.172 1427.74 324.984 1429.04 327.447C1430.37 329.909 1431.03 333.105 1431.03 337.034V367H1421.28V338.86C1421.28 335.291 1420.55 332.621 1419.08 330.85C1417.61 329.052 1415.35 328.152 1412.27 328.152C1409.31 328.152 1406.96 328.775 1405.22 330.02C1403.5 331.237 1402.27 333.05 1401.52 335.457C1400.78 337.837 1400.4 340.742 1400.4 344.173V367H1390.65V302.42H1400.4Z" fill="white"/>
</svg>
